name C:\Users\antoi\Documents\MyRepositories\upper-imu-dc\Results\main_tracking\Case_70\ABD01_angularVelocities_groundFrame.mot
datacolumns 4
datarows 82
range 6.31000000 7.12000000
endheader 
time	radius_imu_x	radius_imu_y	radius_imu_z	
          6.31000000	         -0.54681239	          0.47047805	         -0.13613891	
          6.32000000	         -0.54663636	          0.46630596	         -0.14253271	
          6.33000000	         -0.54633117	          0.46134693	         -0.14821911	
          6.34000000	         -0.54580865	          0.45566899	         -0.15306542	
          6.35000000	         -0.54497841	          0.44936015	         -0.15694340	
          6.36000000	         -0.54375016	          0.44253368	         -0.15972880	
          6.37000000	         -0.54203758	          0.43533058	         -0.16130330	
          6.38000000	         -0.53976361	          0.42791568	         -0.16156017	
          6.39000000	         -0.53686686	          0.42046495	         -0.16041454	
          6.40000000	         -0.53330827	          0.41314311	         -0.15781564	
          6.41000000	         -0.52907744	          0.40607703	         -0.15375826	
          6.42000000	         -0.52419458	          0.39933661	         -0.14829294	
          6.43000000	         -0.51870715	          0.39292490	         -0.14152234	
          6.44000000	         -0.51268417	          0.38678304	         -0.13358572	
          6.45000000	         -0.50620734	          0.38081425	         -0.12464491	
          6.46000000	         -0.49936024	          0.37491447	         -0.11487082	
          6.47000000	         -0.49222087	          0.36899987	         -0.10443157	
          6.48000000	         -0.48485984	          0.36302807	         -0.09348677	
          6.49000000	         -0.47734292	          0.35700852	         -0.08218746	
          6.50000000	         -0.46973394	          0.35100245	         -0.07068170	
          6.51000000	         -0.46209743	          0.34511544	         -0.05912121	
          6.52000000	         -0.45450166	          0.33948373	         -0.04766076	
          6.53000000	         -0.44701808	          0.33426039	         -0.03645227	
          6.54000000	         -0.43971515	          0.32960473	         -0.02564042	
          6.55000000	         -0.43265194	          0.32567583	         -0.01535795	
          6.56000000	         -0.42587269	          0.32263001	         -0.00572039	
          6.57000000	         -0.41940151	          0.32061830	          0.00317687	
          6.58000000	         -0.41323956	          0.31978262	          0.01125860	
          6.59000000	         -0.40736489	          0.32024924	          0.01846700	
          6.60000000	         -0.40173528	          0.32212153	          0.02475909	
          6.61000000	         -0.39629299	          0.32547095	          0.03010627	
          6.62000000	         -0.39097155	          0.33032846	          0.03449678	
          6.63000000	         -0.38570292	          0.33667972	          0.03793762	
          6.64000000	         -0.38041974	          0.34446605	          0.04044899	
          6.65000000	         -0.37505835	          0.35358348	          0.04206744	
          6.66000000	         -0.36956442	          0.36388283	          0.04285242	
          6.67000000	         -0.36389111	          0.37517540	          0.04288412	
          6.68000000	         -0.35800120	          0.38724243	          0.04226045	
          6.69000000	         -0.35186625	          0.39984473	          0.04109191	
          6.70000000	         -0.34546316	          0.41272979	          0.03949786	
          6.71000000	         -0.33877552	          0.42563783	          0.03760235	
          6.72000000	         -0.33179269	          0.43830512	          0.03552704	
          6.73000000	         -0.32450746	          0.45046541	          0.03338427	
          6.74000000	         -0.31691336	          0.46185280	          0.03127075	
          6.75000000	         -0.30900381	          0.47220818	          0.02926359	
          6.76000000	         -0.30077045	          0.48128670	          0.02741967	
          6.77000000	         -0.29220147	          0.48886561	          0.02577460	
          6.78000000	         -0.28328373	          0.49475123	          0.02434142	
          6.79000000	         -0.27400770	          0.49878306	          0.02311071	
          6.80000000	         -0.26437271	          0.50083507	          0.02205193	
          6.81000000	         -0.25439111	          0.50081389	          0.02111665	
          6.82000000	         -0.24409205	          0.49865347	          0.02024443	
          6.83000000	         -0.23352262	          0.49430581	          0.01937021	
          6.84000000	         -0.22274456	          0.48773262	          0.01843278	
          6.85000000	         -0.21182588	          0.47889638	          0.01738319	
          6.86000000	         -0.20083192	          0.46775424	          0.01618987	
          6.87000000	         -0.18982326	          0.45425781	          0.01483715	
          6.88000000	         -0.17885030	          0.43835644	          0.01332450	
          6.89000000	         -0.16794614	          0.42000535	          0.01166475	
          6.90000000	         -0.15712817	          0.39918102	          0.00987901	
          6.91000000	         -0.14640308	          0.37589717	          0.00799284	
          6.92000000	         -0.13577157	          0.35021888	          0.00603418	
          6.93000000	         -0.12523120	          0.32227365	          0.00403273	
          6.94000000	         -0.11477850	          0.29225371	          0.00201914	
          6.95000000	         -0.10440748	          0.26040639	          0.00002255	
          6.96000000	         -0.09410592	          0.22701504	         -0.00193321	
          6.97000000	         -0.08385526	          0.19237420	         -0.00382858	
          6.98000000	         -0.07362238	          0.15676464	         -0.00565065	
          6.99000000	         -0.06334604	          0.12042852	         -0.00738697	
          7.00000000	         -0.05293708	          0.08356050	         -0.00902408	
          7.01000000	         -0.04226632	          0.04630110	         -0.01054421	
          7.02000000	         -0.03115502	          0.00873346	         -0.01191652	
          7.03000000	         -0.01937817	         -0.02910597	         -0.01309685	
          7.04000000	         -0.00667281	         -0.06720861	         -0.01403054	
          7.05000000	          0.00725327	         -0.10557206	         -0.01465202	
          7.06000000	          0.02270485	         -0.14417014	         -0.01488807	
          7.07000000	          0.03997754	         -0.18291878	         -0.01466817	
          7.08000000	          0.05934007	         -0.22166090	         -0.01391583	
          7.09000000	          0.08101915	         -0.26016015	         -0.01254523	
          7.10000000	          0.10518427	         -0.29809954	         -0.01046842	
          7.11000000	          0.13193481	         -0.33509099	         -0.00759725	
          7.12000000	          0.16129874	         -0.37069334	         -0.00384561	
